<svg width="412" height="412" viewBox="0 0 412 412" fill="none" xmlns="http://www.w3.org/2000/svg">
<g clip-path="url(#clip0)">
<g opacity="0.5">
<path opacity="0.5" d="M206 412C319.771 412 412 319.771 412 206C412 92.2293 319.771 0 206 0C92.2293 0 0 92.2293 0 206C0 319.771 92.2293 412 206 412Z" fill="url(#paint0_linear)"/>
</g>
<path d="M206.401 406.339C317.773 406.339 408.057 316.055 408.057 204.684C408.057 93.3123 317.773 3.02802 206.401 3.02802C95.03 3.02802 4.74567 93.3123 4.74567 204.684C4.74567 316.055 95.03 406.339 206.401 406.339Z" fill="#FFE896"/>
<g filter="url(#filter0_d)">
<path d="M206.59 407.136C245.994 407.2 284.544 395.663 317.435 373.964C310.003 333.354 281.724 331.04 281.724 331.04H125.778C125.778 331.04 99.0925 333.23 90.7581 370.588C124.668 394.44 165.132 407.208 206.59 407.136V407.136Z" fill="#4C4B53"/>
<path d="M204.448 297.767C258.203 297.767 301.781 254.19 301.781 200.434C301.781 146.678 258.203 103.1 204.448 103.1C150.692 103.1 107.114 146.678 107.114 200.434C107.114 254.19 150.692 297.767 204.448 297.767Z" fill="#333333"/>
<path opacity="0.1" d="M173.034 281.506H235.401V331.4C235.401 339.669 232.117 347.598 226.272 353.446C220.426 359.294 212.498 362.58 204.229 362.584V362.584C195.959 362.584 188.027 359.298 182.179 353.45C176.331 347.602 173.046 339.671 173.046 331.4V281.506H173.034Z" fill="black"/>
<path d="M175.011 279.192H233.447C233.971 279.192 234.474 279.4 234.845 279.771C235.216 280.142 235.424 280.645 235.424 281.169V329.086C235.425 333.183 234.619 337.24 233.051 341.024C231.484 344.809 229.186 348.248 226.289 351.144C223.392 354.041 219.953 356.338 216.168 357.905C212.382 359.472 208.326 360.277 204.229 360.276V360.276C195.959 360.276 188.027 356.99 182.179 351.142C176.331 345.294 173.046 337.363 173.046 329.092V281.169C173.046 280.647 173.253 280.146 173.621 279.775C173.989 279.405 174.489 279.195 175.011 279.192V279.192Z" fill="#B7795D"/>
<path d="M204.448 309.23C253.819 309.23 293.842 269.207 293.842 219.836C293.842 170.464 253.819 130.441 204.448 130.441C155.076 130.441 115.053 170.464 115.053 219.836C115.053 269.207 155.076 309.23 204.448 309.23Z" fill="#B7795D"/>
<path d="M115.018 235.348C119.611 235.348 123.334 228.366 123.334 219.753C123.334 211.14 119.611 204.158 115.018 204.158C110.424 204.158 106.701 211.14 106.701 219.753C106.701 228.366 110.424 235.348 115.018 235.348Z" fill="#B7795D"/>
<path d="M293.83 235.348C298.424 235.348 302.147 228.366 302.147 219.753C302.147 211.14 298.424 204.158 293.83 204.158C289.237 204.158 285.514 211.14 285.514 219.753C285.514 228.366 289.237 235.348 293.83 235.348Z" fill="#B7795D"/>
<path d="M133.567 151.781C133.567 151.781 183.425 220.034 274.192 157.021L243.639 123.421L199.645 115.954L133.567 151.781Z" fill="#333333"/>
</g>
</g>
<defs>
<filter id="filter0_d" x="79.7581" y="92.1003" width="256.677" height="334.036" filterUnits="userSpaceOnUse" color-interpolation-filters="sRGB">
<feFlood flood-opacity="0" result="BackgroundImageFix"/>
<feColorMatrix in="SourceAlpha" type="matrix" values="0 0 0 0 0 0 0 0 0 0 0 0 0 0 0 0 0 0 127 0"/>
<feOffset dx="4" dy="4"/>
<feGaussianBlur stdDeviation="7.5"/>
<feColorMatrix type="matrix" values="0 0 0 0 0 0 0 0 0 0 0 0 0 0 0 0 0 0 0.3 0"/>
<feBlend mode="normal" in2="BackgroundImageFix" result="effect1_dropShadow"/>
<feBlend mode="normal" in="SourceGraphic" in2="effect1_dropShadow" result="shape"/>
</filter>
<linearGradient id="paint0_linear" x1="206" y1="412" x2="206" y2="0" gradientUnits="userSpaceOnUse">
<stop stop-color="#808080" stop-opacity="0.25"/>
<stop offset="0.54" stop-color="#808080" stop-opacity="0.12"/>
<stop offset="1" stop-color="#808080" stop-opacity="0.1"/>
</linearGradient>
<clipPath id="clip0">
<rect width="412" height="412" fill="white"/>
</clipPath>
</defs>
</svg>
